<svg xmlns="http://www.w3.org/2000/svg" width="348" height="348" viewBox="0 0 348 348" fill="none">
<rect width="348" height="348" rx="40" fill="white"/>
<path d="M178.134 96.2045C177.582 92.6468 193.539 95.2348 211.26 93.8327C234.589 91.9868 262.189 84.2094 272.543 90.275C290.762 100.948 286.753 159.851 280.273 205.901C278.339 219.642 279.168 229.619 272.543 244.442C267.441 255.859 213.875 254.263 189.519 252.926C182.754 252.554 177.582 247 177.585 240.225C177.599 205.092 177.678 104.402 178.134 103.913C178.134 103.913 178.686 99.7622 178.134 96.2045Z" fill="black"/>
<path d="M87.4456 95.612C139.487 109.25 111.042 100.949 144.864 105.692C178.686 110.436 190.136 110.436 190.136 110.436L188.624 252.744L79.3077 251.558C79.3077 251.558 35.4045 81.9741 87.4456 95.612Z" fill="black"/>
<path d="M203.974 147.949C205.551 146.948 220.271 146.948 222.9 147.949C225.529 148.95 226.054 168.968 222.9 169.969C219.746 170.97 205.025 171.47 203.974 169.969C202.922 168.468 202.396 148.95 203.974 147.949Z" fill="white"/>
<path d="M158.93 187.954C157.353 188.955 142.632 188.955 140.004 187.954C137.375 186.953 136.849 166.935 140.004 165.934C143.158 164.934 157.879 164.433 158.93 165.934C159.982 167.436 160.507 186.953 158.93 187.954Z" fill="white"/>
</svg>